<svg width="20" height="20" viewBox="0 0 20 20" fill="none" xmlns="http://www.w3.org/2000/svg">
<path opacity="0.9" d="M17.4052 8.67962C17.4052 10.7334 16.6953 12.5917 15.4957 14.083L20 18.6063L18.6046 20L14.1003 15.4768C12.607 16.6503 10.7221 17.3839 8.69029 17.3839C3.89227 17.3595 0 13.4718 0 8.67971C0.000171661 3.88753 3.91684 0 8.71477 0C13.5128 0 17.4051 3.88749 17.4051 8.67971L17.4052 8.67962ZM1.98294 8.67962C1.98294 12.396 4.9939 15.4033 8.71486 15.4033C12.4358 15.4033 15.4468 12.3959 15.4468 8.67962C15.4468 4.96319 12.4358 1.9559 8.71486 1.9559C4.9939 1.9559 1.98294 4.96319 1.98294 8.67962Z" fill="white"/>
</svg>
