<svg width="50" height="50" viewBox="0 0 50 50" fill="none" xmlns="http://www.w3.org/2000/svg">
<path d="M40.625 0H9.375C6.88944 0.00275714 4.50647 0.991363 2.74892 2.74892C0.991363 4.50647 0.00275714 6.88944 0 9.375L0 40.625C0.00275714 43.1106 0.991363 45.4935 2.74892 47.2511C4.50647 49.0086 6.88944 49.9972 9.375 50H40.625C43.1106 49.9972 45.4935 49.0086 47.2511 47.2511C49.0086 45.4935 49.9972 43.1106 50 40.625V9.375C49.9972 6.88944 49.0086 4.50647 47.2511 2.74892C45.4935 0.991363 43.1106 0.00275714 40.625 0V0ZM9.375 6.25H40.625C41.4538 6.25 42.2487 6.57924 42.8347 7.16529C43.4208 7.75134 43.75 8.5462 43.75 9.375V40.625C43.7505 41.0354 43.6698 41.4418 43.5125 41.8208C43.3552 42.1999 43.1243 42.544 42.8333 42.8333L24.6417 24.6417C23.0789 23.0794 20.9597 22.2018 18.75 22.2018C16.5403 22.2018 14.4211 23.0794 12.8583 24.6417L6.25 31.25V9.375C6.25 8.5462 6.57924 7.75134 7.16529 7.16529C7.75134 6.57924 8.5462 6.25 9.375 6.25Z" fill="white"/>
</svg>
