<svg width="136" height="43" viewBox="0 0 136 43" fill="none" xmlns="http://www.w3.org/2000/svg">
<path d="M61.54 17L58.388 6.568H60.884L62.132 11.432C62.292 11.9973 62.4307 12.552 62.548 13.096C62.676 13.64 62.82 14.2 62.98 14.776H63.044C63.1933 14.2 63.332 13.64 63.46 13.096C63.588 12.552 63.7267 11.9973 63.876 11.432L65.108 6.568H67.508L64.372 17H61.54ZM68.4306 17V9.064H70.7826V17H68.4306ZM69.5986 7.896C69.204 7.896 68.884 7.784 68.6386 7.56C68.3933 7.336 68.2706 7.03733 68.2706 6.664C68.2706 6.29067 68.3933 5.992 68.6386 5.768C68.884 5.544 69.204 5.432 69.5986 5.432C69.9933 5.432 70.3133 5.544 70.5586 5.768C70.804 5.992 70.9266 6.29067 70.9266 6.664C70.9266 7.03733 70.804 7.336 70.5586 7.56C70.3133 7.784 69.9933 7.896 69.5986 7.896ZM76.4045 17.192C75.6472 17.192 74.9645 17.0267 74.3565 16.696C73.7485 16.3653 73.2685 15.8907 72.9165 15.272C72.5645 14.6533 72.3885 13.9067 72.3885 13.032C72.3885 12.168 72.5645 11.4267 72.9165 10.808C73.2792 10.1893 73.7485 9.71467 74.3245 9.384C74.9005 9.04267 75.5032 8.872 76.1325 8.872C76.8898 8.872 77.5138 9.04267 78.0045 9.384C78.5058 9.71467 78.8792 10.168 79.1245 10.744C79.3805 11.3093 79.5085 11.9547 79.5085 12.68C79.5085 12.8827 79.4978 13.0853 79.4765 13.288C79.4552 13.48 79.4338 13.624 79.4125 13.72H74.6605C74.7672 14.296 75.0072 14.7227 75.3805 15C75.7538 15.2667 76.2018 15.4 76.7245 15.4C77.2898 15.4 77.8605 15.224 78.4365 14.872L79.2205 16.296C78.8152 16.5733 78.3618 16.792 77.8605 16.952C77.3592 17.112 76.8738 17.192 76.4045 17.192ZM74.6445 12.168H77.5085C77.5085 11.7307 77.4018 11.3733 77.1885 11.096C76.9858 10.808 76.6498 10.664 76.1805 10.664C75.8178 10.664 75.4925 10.792 75.2045 11.048C74.9165 11.2933 74.7298 11.6667 74.6445 12.168ZM82.368 17L80.384 9.064H82.72L83.488 12.744C83.552 13.1387 83.6107 13.528 83.664 13.912C83.7173 14.296 83.776 14.6907 83.84 15.096H83.904C83.9787 14.6907 84.048 14.2907 84.112 13.896C84.1867 13.5013 84.272 13.1173 84.368 12.744L85.248 9.064H87.28L88.176 12.744C88.272 13.1387 88.3573 13.528 88.432 13.912C88.5173 14.296 88.5973 14.6907 88.672 15.096H88.736C88.8107 14.6907 88.8693 14.296 88.912 13.912C88.9653 13.528 89.0293 13.1387 89.104 12.744L89.856 9.064H92.032L90.128 17H87.376L86.656 13.832C86.5813 13.4587 86.5067 13.0853 86.432 12.712C86.368 12.3387 86.2987 11.9387 86.224 11.512H86.16C86.0853 11.9387 86.016 12.3387 85.952 12.712C85.8987 13.0853 85.8347 13.4587 85.76 13.832L85.056 17H82.368ZM96.8889 17.192C96.1315 17.192 95.4489 17.0267 94.8409 16.696C94.2329 16.3653 93.7529 15.8907 93.4009 15.272C93.0489 14.6533 92.8729 13.9067 92.8729 13.032C92.8729 12.168 93.0489 11.4267 93.4009 10.808C93.7635 10.1893 94.2329 9.71467 94.8089 9.384C95.3849 9.04267 95.9875 8.872 96.6169 8.872C97.3742 8.872 97.9982 9.04267 98.4889 9.384C98.9902 9.71467 99.3635 10.168 99.6089 10.744C99.8649 11.3093 99.9929 11.9547 99.9929 12.68C99.9929 12.8827 99.9822 13.0853 99.9609 13.288C99.9395 13.48 99.9182 13.624 99.8969 13.72H95.1449C95.2515 14.296 95.4915 14.7227 95.8649 15C96.2382 15.2667 96.6862 15.4 97.2089 15.4C97.7742 15.4 98.3449 15.224 98.9209 14.872L99.7049 16.296C99.2995 16.5733 98.8462 16.792 98.3449 16.952C97.8435 17.112 97.3582 17.192 96.8889 17.192ZM95.1289 12.168H97.9929C97.9929 11.7307 97.8862 11.3733 97.6729 11.096C97.4702 10.808 97.1342 10.664 96.6649 10.664C96.3022 10.664 95.9769 10.792 95.6889 11.048C95.4009 11.2933 95.2142 11.6667 95.1289 12.168ZM101.618 17V9.064H103.538L103.698 10.456H103.762C104.05 9.92267 104.397 9.528 104.802 9.272C105.207 9.00533 105.613 8.872 106.018 8.872C106.242 8.872 106.429 8.888 106.578 8.92C106.727 8.94133 106.855 8.97867 106.962 9.032L106.578 11.064C106.439 11.0213 106.301 10.9893 106.162 10.968C106.034 10.9467 105.885 10.936 105.714 10.936C105.415 10.936 105.101 11.048 104.77 11.272C104.45 11.4853 104.183 11.8587 103.97 12.392V17H101.618ZM110.204 17.192C109.681 17.192 109.143 17.0907 108.588 16.888C108.044 16.6853 107.569 16.4187 107.164 16.088L108.22 14.616C108.583 14.8827 108.929 15.0907 109.26 15.24C109.601 15.3787 109.937 15.448 110.268 15.448C110.62 15.448 110.876 15.3893 111.036 15.272C111.196 15.144 111.276 14.9787 111.276 14.776C111.276 14.5947 111.196 14.4453 111.036 14.328C110.887 14.2107 110.689 14.104 110.444 14.008C110.199 13.9013 109.937 13.7947 109.66 13.688C109.34 13.56 109.02 13.4 108.7 13.208C108.391 13.016 108.129 12.7707 107.916 12.472C107.703 12.1627 107.596 11.7893 107.596 11.352C107.596 10.616 107.873 10.0187 108.428 9.56C108.993 9.10133 109.729 8.872 110.636 8.872C111.244 8.872 111.777 8.97867 112.236 9.192C112.705 9.39467 113.105 9.624 113.436 9.88L112.38 11.288C112.103 11.0747 111.825 10.9093 111.548 10.792C111.271 10.6747 110.993 10.616 110.716 10.616C110.108 10.616 109.804 10.824 109.804 11.24C109.804 11.496 109.953 11.6933 110.252 11.832C110.561 11.96 110.919 12.0987 111.324 12.248C111.665 12.3653 111.996 12.52 112.316 12.712C112.647 12.8933 112.919 13.1387 113.132 13.448C113.356 13.7467 113.468 14.1413 113.468 14.632C113.468 15.3467 113.191 15.9547 112.636 16.456C112.081 16.9467 111.271 17.192 110.204 17.192ZM67.574 40.312C66.1527 40.312 64.844 39.9827 63.648 39.324C62.452 38.6653 61.49 37.6947 60.762 36.412C60.0513 35.112 59.696 33.5173 59.696 31.628C59.696 29.756 60.06 28.1613 60.788 26.844C61.5333 25.5093 62.5127 24.4953 63.726 23.802C64.9567 23.0913 66.2827 22.736 67.704 22.736C68.796 22.736 69.7753 22.9613 70.642 23.412C71.5087 23.8453 72.228 24.3567 72.8 24.946L70.772 27.39C70.3387 26.9913 69.8793 26.6707 69.394 26.428C68.926 26.168 68.3887 26.038 67.782 26.038C67.0193 26.038 66.3173 26.2547 65.676 26.688C65.052 27.1213 64.5493 27.7453 64.168 28.56C63.804 29.3747 63.622 30.354 63.622 31.498C63.622 33.2313 63.9947 34.5833 64.74 35.554C65.4853 36.5247 66.482 37.01 67.73 37.01C68.4233 37.01 69.0387 36.854 69.576 36.542C70.1307 36.23 70.616 35.8573 71.032 35.424L73.06 37.816C71.6387 39.48 69.81 40.312 67.574 40.312ZM75.3228 40V21.774H79.1448V26.246L78.9628 28.56C79.4481 28.1267 80.0115 27.728 80.6528 27.364C81.3115 26.9827 82.0741 26.792 82.9408 26.792C84.3448 26.792 85.3588 27.26 85.9828 28.196C86.6241 29.1147 86.9448 30.38 86.9448 31.992V40H83.1228V32.486C83.1228 31.55 82.9928 30.9087 82.7328 30.562C82.4901 30.2153 82.0915 30.042 81.5368 30.042C81.0515 30.042 80.6355 30.1547 80.2888 30.38C79.9421 30.588 79.5608 30.8913 79.1448 31.29V40H75.3228ZM95.7143 40.312C94.6223 40.312 93.591 40.052 92.6203 39.532C91.667 38.9947 90.8957 38.2233 90.3063 37.218C89.717 36.1953 89.4223 34.9733 89.4223 33.552C89.4223 32.1133 89.717 30.8913 90.3063 29.886C90.8957 28.8807 91.667 28.118 92.6203 27.598C93.591 27.0607 94.6223 26.792 95.7143 26.792C96.8063 26.792 97.829 27.0607 98.7823 27.598C99.7357 28.118 100.507 28.8807 101.096 29.886C101.686 30.8913 101.98 32.1133 101.98 33.552C101.98 34.9733 101.686 36.1953 101.096 37.218C100.507 38.2233 99.7357 38.9947 98.7823 39.532C97.829 40.052 96.8063 40.312 95.7143 40.312ZM95.7143 37.218C96.4943 37.218 97.0837 36.8887 97.4823 36.23C97.881 35.554 98.0803 34.6613 98.0803 33.552C98.0803 32.4253 97.881 31.5327 97.4823 30.874C97.0837 30.2153 96.4943 29.886 95.7143 29.886C94.917 29.886 94.319 30.2153 93.9203 30.874C93.539 31.5327 93.3483 32.4253 93.3483 33.552C93.3483 34.6613 93.539 35.554 93.9203 36.23C94.319 36.8887 94.917 37.218 95.7143 37.218ZM104.598 40V27.104H108.42V40H104.598ZM106.496 25.206C105.855 25.206 105.335 25.024 104.936 24.66C104.538 24.296 104.338 23.8107 104.338 23.204C104.338 22.5973 104.538 22.112 104.936 21.748C105.335 21.384 105.855 21.202 106.496 21.202C107.138 21.202 107.658 21.384 108.056 21.748C108.455 22.112 108.654 22.5973 108.654 23.204C108.654 23.8107 108.455 24.296 108.056 24.66C107.658 25.024 107.138 25.206 106.496 25.206ZM117.4 40.312C116.204 40.312 115.12 40.052 114.15 39.532C113.196 38.9947 112.434 38.2233 111.862 37.218C111.307 36.1953 111.03 34.9733 111.03 33.552C111.03 32.1133 111.342 30.8913 111.966 29.886C112.59 28.8807 113.413 28.118 114.436 27.598C115.458 27.0607 116.559 26.792 117.738 26.792C118.535 26.792 119.237 26.922 119.844 27.182C120.468 27.442 121.022 27.7713 121.508 28.17L119.714 30.64C119.107 30.1373 118.526 29.886 117.972 29.886C117.053 29.886 116.316 30.2153 115.762 30.874C115.224 31.5327 114.956 32.4253 114.956 33.552C114.956 34.6613 115.224 35.554 115.762 36.23C116.316 36.8887 117.01 37.218 117.842 37.218C118.258 37.218 118.665 37.1313 119.064 36.958C119.462 36.7673 119.826 36.542 120.156 36.282L121.664 38.778C121.022 39.3327 120.329 39.7313 119.584 39.974C118.838 40.1993 118.11 40.312 117.4 40.312ZM128.956 40.312C127.725 40.312 126.616 40.0433 125.628 39.506C124.64 38.9687 123.86 38.1973 123.288 37.192C122.716 36.1867 122.43 34.9733 122.43 33.552C122.43 32.148 122.716 30.9433 123.288 29.938C123.877 28.9327 124.64 28.1613 125.576 27.624C126.512 27.0693 127.491 26.792 128.514 26.792C129.745 26.792 130.759 27.0693 131.556 27.624C132.371 28.1613 132.977 28.898 133.376 29.834C133.792 30.7527 134 31.8013 134 32.98C134 33.3093 133.983 33.6387 133.948 33.968C133.913 34.28 133.879 34.514 133.844 34.67H126.122C126.295 35.606 126.685 36.2993 127.292 36.75C127.899 37.1833 128.627 37.4 129.476 37.4C130.395 37.4 131.322 37.114 132.258 36.542L133.532 38.856C132.873 39.3067 132.137 39.662 131.322 39.922C130.507 40.182 129.719 40.312 128.956 40.312ZM126.096 32.148H130.75C130.75 31.4373 130.577 30.8567 130.23 30.406C129.901 29.938 129.355 29.704 128.592 29.704C128.003 29.704 127.474 29.912 127.006 30.328C126.538 30.7267 126.235 31.3333 126.096 32.148Z" fill="url(#paint0_linear_696_4440)"/>
<path d="M4.85616 26.093C4.85616 26.093 5.3247 24.1594 3.71049 22.4923C2.09468 20.8203 0.0729073 20.8203 0.0729073 20.8203C0.0729073 20.8203 -0.419699 23.094 1.156 24.721C2.7333 26.3465 4.85616 26.093 4.85616 26.093Z" fill="url(#paint1_linear_696_4440)"/>
<path d="M29.5327 27.6658V9.93359H25.3543C25.3206 10.6653 25.1473 11.2798 24.8312 11.7805C24.5167 12.2811 24.114 12.6822 23.623 12.9775C23.1288 13.2759 22.5784 13.4861 21.9655 13.6145C21.3541 13.7413 20.7267 13.7974 20.0801 13.7814V17.4495H24.2343V27.6658H29.5327Z" fill="url(#paint2_linear_696_4440)"/>
<path d="M13.2932 18.3058C13.1617 17.5838 13.0846 16.8441 13.0846 16.0835C13.0846 9.21909 18.6381 3.63354 25.488 3.57417V3.58059C32.3524 3.62552 37.9219 9.21909 37.9219 16.0915C37.9219 16.8521 37.8433 17.5918 37.7134 18.3139H40.8535C40.9562 17.5854 41.0284 16.8489 41.0284 16.0915C41.0284 7.51503 34.079 0.533492 25.5169 0.472518V0.462891C16.9404 0.507819 9.97656 7.49738 9.97656 16.0835C9.97656 16.8409 10.0488 17.5774 10.1531 18.3058H13.2932Z" fill="url(#paint3_linear_696_4440)"/>
<path d="M8.40346 25.7315C8.40346 25.7315 10.2792 24.6998 10.613 22.463C10.9467 20.223 9.22179 18.6602 9.22179 18.6602C9.22179 18.6602 7.58031 19.8379 7.23693 22.1357C6.89515 24.4302 8.40346 25.7315 8.40346 25.7315Z" fill="url(#paint4_linear_696_4440)"/>
<path d="M9.63445 27.9374C9.59594 30.2576 11.2599 31.3503 11.2599 31.3503C11.2599 31.3503 12.9848 30.0827 13.0249 27.8203C13.0618 25.5578 11.1492 24.2324 11.1492 24.2324C11.1492 24.2324 9.67296 25.6124 9.63445 27.9374Z" fill="url(#paint5_linear_696_4440)"/>
<path d="M14.7282 27.5078C14.7282 27.5078 13.39 29.0225 13.5681 31.3412C13.7478 33.6566 15.5064 34.584 15.5064 34.584C15.5064 34.584 17.1062 33.1624 16.9329 30.9047C16.7564 28.6487 14.7282 27.5078 14.7282 27.5078Z" fill="url(#paint6_linear_696_4440)"/>
<path d="M20.8375 37.3754C20.8375 37.3754 21.9607 35.551 21.1439 33.4393C20.3256 31.3309 18.0535 30.8223 18.0535 30.8223C18.0535 30.8223 17.2079 32.6595 18.0471 34.8257C18.8863 36.9919 20.8375 37.3754 20.8375 37.3754Z" fill="url(#paint7_linear_696_4440)"/>
<path d="M5.61908 21.1409C5.61908 21.1409 7.08406 19.793 6.66527 17.5081C6.24968 15.2248 4.56808 14.1016 4.56808 14.1016C4.56808 14.1016 2.89771 15.7206 3.30528 17.9493C3.71123 20.1749 5.61908 21.1409 5.61908 21.1409Z" fill="url(#paint8_linear_696_4440)"/>
<path d="M6.82098 30.4695C6.82098 30.4695 6.69903 28.483 4.66442 27.363C2.6282 26.2446 0.696289 26.8399 0.696289 26.8399C0.696289 26.8399 0.896862 29.1569 2.88173 30.2497C4.86339 31.3408 6.82098 30.4695 6.82098 30.4695Z" fill="url(#paint9_linear_696_4440)"/>
<path d="M10.2631 34.3132C10.2631 34.3132 9.7031 32.4054 7.47113 31.7651C5.23595 31.1297 3.48535 32.1358 3.48535 32.1358C3.48535 32.1358 4.19618 34.3517 6.37199 34.9743C8.54941 35.5953 10.2631 34.3132 10.2631 34.3132Z" fill="url(#paint10_linear_696_4440)"/>
<path d="M14.1029 37.0469C14.1029 37.0469 12.991 35.399 10.6691 35.4648C8.34569 35.5306 6.9834 37.0245 6.9834 37.0245C6.9834 37.0245 8.33125 38.9227 10.5937 38.8569C12.8562 38.7895 14.1029 37.0469 14.1029 37.0469Z" fill="url(#paint11_linear_696_4440)"/>
<path d="M15.7435 38.1632C13.4457 38.5081 12.2695 40.1496 12.2695 40.1496C12.2695 40.1496 13.8356 41.8729 16.074 41.5376C18.314 41.199 19.3409 39.3217 19.3409 39.3217C19.3409 39.3217 18.0364 37.8166 15.7435 38.1632Z" fill="url(#paint12_linear_696_4440)"/>
<path d="M6.38145 22.2713L5.2759 22.2344C5.27108 22.3531 5.05446 34.3634 23.1959 39.6842L23.5071 38.622C6.23223 33.5547 6.36541 22.7318 6.38145 22.2713Z" fill="url(#paint13_linear_696_4440)"/>
<path d="M46.1452 26.1027C46.1452 26.1027 48.2713 26.3563 49.8454 24.7308C51.4195 23.1038 50.9285 20.8301 50.9285 20.8301C50.9285 20.8301 48.9067 20.8301 47.2909 22.5004C45.6767 24.166 46.1452 26.1027 46.1452 26.1027Z" fill="url(#paint14_linear_696_4440)"/>
<path d="M40.3895 22.4689C40.7233 24.7089 42.599 25.7374 42.599 25.7374C42.599 25.7374 44.1057 24.4377 43.7655 22.1415C43.4254 19.8454 41.7823 18.666 41.7823 18.666C41.7823 18.666 40.0558 20.2289 40.3895 22.4689Z" fill="url(#paint15_linear_696_4440)"/>
<path d="M37.981 27.8297C38.0179 30.0905 39.746 31.3582 39.746 31.3582C39.746 31.3582 41.41 30.267 41.3715 27.9452C41.3346 25.6234 39.86 24.2402 39.86 24.2402C39.86 24.2402 37.9441 25.5672 37.981 27.8297Z" fill="url(#paint16_linear_696_4440)"/>
<path d="M34.0695 30.9145C33.8978 33.1721 35.4976 34.5938 35.4976 34.5938C35.4976 34.5938 37.2578 33.6663 37.4359 31.3509C37.6124 29.0355 36.2742 27.5176 36.2742 27.5176C36.2742 27.5176 34.2476 28.6584 34.0695 30.9145Z" fill="url(#paint17_linear_696_4440)"/>
<path d="M29.8601 33.4472C29.045 35.5604 30.1682 37.3832 30.1682 37.3832C30.1682 37.3832 32.121 37.0013 32.9586 34.8335C33.7946 32.6657 32.9522 30.8301 32.9522 30.8301C32.9522 30.8301 30.6801 31.3387 29.8601 33.4472Z" fill="url(#paint18_linear_696_4440)"/>
<path d="M47.703 17.9591C48.1106 15.7304 46.4402 14.1113 46.4402 14.1113C46.4402 14.1113 44.7586 15.2345 44.3414 17.5195C43.9242 19.8028 45.3876 21.1522 45.3876 21.1522C45.3876 21.1522 47.2971 20.1863 47.703 17.9591Z" fill="url(#paint19_linear_696_4440)"/>
<path d="M46.3421 27.3728C44.3059 28.4912 44.1855 30.4792 44.1855 30.4792C44.1855 30.4792 46.1415 31.3505 48.1264 30.2594C50.1081 29.1683 50.3102 26.8497 50.3102 26.8497C50.3102 26.8497 48.3767 26.2544 46.3421 27.3728Z" fill="url(#paint20_linear_696_4440)"/>
<path d="M43.5342 31.7765C41.3006 32.4135 40.7422 34.3245 40.7422 34.3245C40.7422 34.3245 42.4559 35.6066 44.6333 34.9856C46.8091 34.3615 47.5199 32.1455 47.5199 32.1455C47.5199 32.1455 45.7677 31.1378 43.5342 31.7765Z" fill="url(#paint21_linear_696_4440)"/>
<path d="M40.3371 35.4707C38.0169 35.4049 36.9033 37.056 36.9033 37.056C36.9033 37.056 38.1469 38.7986 40.4125 38.8644C42.675 38.9301 44.0228 37.0303 44.0228 37.0303C44.0228 37.0303 42.6606 35.5397 40.3371 35.4707Z" fill="url(#paint22_linear_696_4440)"/>
<path d="M35.2635 38.1705C32.9673 37.8255 31.666 39.3322 31.666 39.3322C31.666 39.3322 32.6946 41.2096 34.9329 41.5481C37.1729 41.8803 38.7374 40.1618 38.7374 40.1618C38.7374 40.1618 37.5612 38.5155 35.2635 38.1705Z" fill="url(#paint23_linear_696_4440)"/>
<path d="M45.7322 22.2402L44.6267 22.2787C44.6411 22.7361 44.7727 33.559 27.501 38.6278L27.8123 39.6917C45.9537 34.3693 45.7354 22.3606 45.7322 22.2402Z" fill="url(#paint24_linear_696_4440)"/>
<defs>
<linearGradient id="paint0_linear_696_4440" x1="54.9908" y1="16.4636" x2="149.959" y2="17.0465" gradientUnits="userSpaceOnUse">
<stop stop-color="#EF4123"/>
<stop offset="1" stop-color="#EF7923"/>
</linearGradient>
<linearGradient id="paint1_linear_696_4440" x1="2.45969" y1="20.8203" x2="2.45969" y2="26.1073" gradientUnits="userSpaceOnUse">
<stop stop-color="#FF6B00"/>
<stop offset="1" stop-color="#F1471E"/>
</linearGradient>
<linearGradient id="paint2_linear_696_4440" x1="24.8064" y1="9.93359" x2="24.8064" y2="27.6658" gradientUnits="userSpaceOnUse">
<stop stop-color="#FF6B00"/>
<stop offset="1" stop-color="#F1471E"/>
</linearGradient>
<linearGradient id="paint3_linear_696_4440" x1="25.5025" y1="0.462891" x2="25.5025" y2="18.3139" gradientUnits="userSpaceOnUse">
<stop stop-color="#FF6B00"/>
<stop offset="1" stop-color="#F1471E"/>
</linearGradient>
<linearGradient id="paint4_linear_696_4440" x1="8.92118" y1="18.6602" x2="8.92118" y2="25.7315" gradientUnits="userSpaceOnUse">
<stop stop-color="#FF6B00"/>
<stop offset="1" stop-color="#F1471E"/>
</linearGradient>
<linearGradient id="paint5_linear_696_4440" x1="11.3296" y1="24.2324" x2="11.3296" y2="31.3503" gradientUnits="userSpaceOnUse">
<stop stop-color="#FF6B00"/>
<stop offset="1" stop-color="#F1471E"/>
</linearGradient>
<linearGradient id="paint6_linear_696_4440" x1="15.2489" y1="27.5078" x2="15.2489" y2="34.584" gradientUnits="userSpaceOnUse">
<stop stop-color="#FF6B00"/>
<stop offset="1" stop-color="#F1471E"/>
</linearGradient>
<linearGradient id="paint7_linear_696_4440" x1="19.5587" y1="30.8223" x2="19.5587" y2="37.3754" gradientUnits="userSpaceOnUse">
<stop stop-color="#FF6B00"/>
<stop offset="1" stop-color="#F1471E"/>
</linearGradient>
<linearGradient id="paint8_linear_696_4440" x1="4.99088" y1="14.1016" x2="4.99088" y2="21.1409" gradientUnits="userSpaceOnUse">
<stop stop-color="#FF6B00"/>
<stop offset="1" stop-color="#F1471E"/>
</linearGradient>
<linearGradient id="paint9_linear_696_4440" x1="3.75863" y1="26.6816" x2="3.75863" y2="30.799" gradientUnits="userSpaceOnUse">
<stop stop-color="#FF6B00"/>
<stop offset="1" stop-color="#F1471E"/>
</linearGradient>
<linearGradient id="paint10_linear_696_4440" x1="6.87423" y1="31.5547" x2="6.87423" y2="35.1441" gradientUnits="userSpaceOnUse">
<stop stop-color="#FF6B00"/>
<stop offset="1" stop-color="#F1471E"/>
</linearGradient>
<linearGradient id="paint11_linear_696_4440" x1="10.5432" y1="35.4629" x2="10.5432" y2="38.8586" gradientUnits="userSpaceOnUse">
<stop stop-color="#FF6B00"/>
<stop offset="1" stop-color="#F1471E"/>
</linearGradient>
<linearGradient id="paint12_linear_696_4440" x1="15.8052" y1="38.1113" x2="15.8052" y2="41.5809" gradientUnits="userSpaceOnUse">
<stop stop-color="#FF6B00"/>
<stop offset="1" stop-color="#F1471E"/>
</linearGradient>
<linearGradient id="paint13_linear_696_4440" x1="14.3913" y1="22.2344" x2="14.3913" y2="39.6842" gradientUnits="userSpaceOnUse">
<stop stop-color="#FF6B00"/>
<stop offset="1" stop-color="#F1471E"/>
</linearGradient>
<linearGradient id="paint14_linear_696_4440" x1="48.5415" y1="20.8301" x2="48.5415" y2="26.1171" gradientUnits="userSpaceOnUse">
<stop stop-color="#FF6B00"/>
<stop offset="1" stop-color="#F1471E"/>
</linearGradient>
<linearGradient id="paint15_linear_696_4440" x1="42.0811" y1="18.666" x2="42.0811" y2="25.7374" gradientUnits="userSpaceOnUse">
<stop stop-color="#FF6B00"/>
<stop offset="1" stop-color="#F1471E"/>
</linearGradient>
<linearGradient id="paint16_linear_696_4440" x1="39.6763" y1="24.2402" x2="39.6763" y2="31.3582" gradientUnits="userSpaceOnUse">
<stop stop-color="#FF6B00"/>
<stop offset="1" stop-color="#F1471E"/>
</linearGradient>
<linearGradient id="paint17_linear_696_4440" x1="35.7543" y1="27.5176" x2="35.7543" y2="34.5938" gradientUnits="userSpaceOnUse">
<stop stop-color="#FF6B00"/>
<stop offset="1" stop-color="#F1471E"/>
</linearGradient>
<linearGradient id="paint18_linear_696_4440" x1="31.446" y1="30.8301" x2="31.446" y2="37.3832" gradientUnits="userSpaceOnUse">
<stop stop-color="#FF6B00"/>
<stop offset="1" stop-color="#F1471E"/>
</linearGradient>
<linearGradient id="paint19_linear_696_4440" x1="46.0168" y1="14.1113" x2="46.0168" y2="21.1522" gradientUnits="userSpaceOnUse">
<stop stop-color="#FF6B00"/>
<stop offset="1" stop-color="#F1471E"/>
</linearGradient>
<linearGradient id="paint20_linear_696_4440" x1="47.2479" y1="26.6914" x2="47.2479" y2="30.8087" gradientUnits="userSpaceOnUse">
<stop stop-color="#FF6B00"/>
<stop offset="1" stop-color="#F1471E"/>
</linearGradient>
<linearGradient id="paint21_linear_696_4440" x1="44.1311" y1="31.5645" x2="44.1311" y2="35.1554" gradientUnits="userSpaceOnUse">
<stop stop-color="#FF6B00"/>
<stop offset="1" stop-color="#F1471E"/>
</linearGradient>
<linearGradient id="paint22_linear_696_4440" x1="40.4631" y1="35.4688" x2="40.4631" y2="38.866" gradientUnits="userSpaceOnUse">
<stop stop-color="#FF6B00"/>
<stop offset="1" stop-color="#F1471E"/>
</linearGradient>
<linearGradient id="paint23_linear_696_4440" x1="35.2017" y1="38.1191" x2="35.2017" y2="41.5907" gradientUnits="userSpaceOnUse">
<stop stop-color="#FF6B00"/>
<stop offset="1" stop-color="#F1471E"/>
</linearGradient>
<linearGradient id="paint24_linear_696_4440" x1="36.6168" y1="22.2402" x2="36.6168" y2="39.6917" gradientUnits="userSpaceOnUse">
<stop stop-color="#FF6B00"/>
<stop offset="1" stop-color="#F1471E"/>
</linearGradient>
</defs>
</svg>
