<svg width="530" height="448" viewBox="0 0 530 448" fill="none" xmlns="http://www.w3.org/2000/svg">
<mask id="mask0_4776_33772" style="mask-type:alpha" maskUnits="userSpaceOnUse" x="0" y="0" width="530" height="448">
<rect width="530" height="448" fill="#D9D9D9"/>
</mask>
<g mask="url(#mask0_4776_33772)">
<path opacity="0.1" d="M660.185 478.727C660.185 478.727 660.068 478.703 659.998 478.679L660.642 476.906C660.49 476.847 660.338 476.788 660.197 476.74L661.112 475.191C660.889 475.062 660.666 474.932 660.455 474.79L661.523 473.558C661.265 473.323 661.007 473.111 660.748 472.876L661.865 471.971C661.606 471.642 661.336 471.325 661.077 470.997L662.125 470.395C661.877 469.984 661.63 469.574 661.382 469.164L662.28 468.783C662.078 468.303 661.865 467.834 661.664 467.354L662.387 467.148C662.232 466.621 662.054 466.094 661.899 465.568L662.448 465.466C662.328 464.904 662.208 464.343 662.088 463.781L662.485 463.737C647.812 348.552 611.174 277.752 568.205 234.783C524.026 190.604 473.329 176.068 433.84 172.623C431.911 172.461 430.029 172.322 428.147 172.206C421.922 143.229 412.188 117.832 401.706 96.6129C378.898 50.403 352.601 23.8034 351.155 22.3582L351.097 22.2995C350.979 22.182 324.356 -4.2092 281.536 -28.8091C260.132 -41.1032 234.664 -52.9525 206.426 -60.8328C195.8 -63.7896 184.769 -66.1761 173.426 -67.8282C165.629 -70.5122 157.694 -72.8932 149.644 -74.8542C142.298 -78.4121 134.895 -81.6781 127.483 -84.5586C120.574 -89.3292 113.749 -93.8071 107.054 -97.9455C100.932 -104.301 95.067 -110.421 89.5784 -116.189L89.1789 -116.588C87.0785 -120.292 85.0483 -123.972 83.1704 -127.593L82.7333 -128.448L81.878 -128.862L81.8545 -128.886C81.6437 -128.98 80.6596 -129.453 78.9252 -130.374C78.0679 -133.253 77.269 -136.144 76.5519 -139.022L76.3487 -139.853L75.7144 -140.441C75.7144 -140.441 73.8587 -142.157 70.1829 -145.507C70.0216 -147.202 69.8837 -148.897 69.7691 -150.592L69.7304 -151.235L69.4235 -151.798C69.4235 -151.798 67.3701 -155.455 62.9056 -161.964C62.9167 -162.069 62.9044 -162.175 62.9155 -162.28L62.9365 -162.7L62.8291 -163.11C62.7932 -163.262 60.9511 -170.937 55.1674 -183.553C54.2676 -189.868 52.4401 -199.132 48.7206 -210.335C41.6624 -231.499 27.7779 -259.467 0.565592 -286.679C-33.6495 -320.894 -88.8661 -353.847 -177.704 -370.875L-178.712 -365.307C-178.712 -365.307 -178.596 -365.283 -178.525 -365.259L-179.17 -363.487C-179.018 -363.427 -178.865 -363.368 -178.725 -363.321L-179.639 -361.772C-179.417 -361.642 -179.194 -361.512 -178.983 -361.371L-180.051 -360.138C-179.792 -359.903 -179.534 -359.691 -179.276 -359.456L-180.393 -358.551C-180.134 -358.222 -179.863 -357.905 -179.604 -357.577L-180.653 -356.975C-180.405 -356.565 -180.157 -356.154 -179.91 -355.744L-180.807 -355.363C-180.606 -354.883 -180.393 -354.415 -180.192 -353.934L-180.915 -353.728C-180.76 -353.201 -180.582 -352.675 -180.427 -352.148L-180.976 -352.046C-180.856 -351.484 -180.736 -350.923 -180.616 -350.361L-181.013 -350.317C-166.386 -235.133 -129.736 -164.32 -86.7675 -121.352C-42.5887 -77.1729 8.10875 -62.6363 47.5977 -59.1919C49.5265 -59.0293 51.4085 -58.8902 53.2904 -58.7746C59.5272 -29.8094 69.2613 -4.41192 79.7316 16.8184C102.539 63.0283 128.837 89.6279 130.282 91.0731L130.329 91.1201C130.458 91.2494 157.082 117.64 199.89 142.229C221.294 154.523 246.761 166.372 275 174.252C285.625 177.209 296.645 179.607 308 181.248C315.797 183.932 323.732 186.313 331.782 188.274C339.128 191.832 346.53 195.098 353.943 197.978C360.851 202.749 367.677 207.227 374.371 211.365C380.494 217.72 386.359 223.841 391.847 229.608L392.247 230.008C394.347 233.711 396.377 237.392 398.255 241.013L398.692 241.868L399.559 242.294L399.583 242.317C399.794 242.412 400.778 242.884 402.512 243.805C403.369 246.685 404.168 249.575 404.886 252.453L405.089 253.284L405.723 253.872C405.723 253.872 407.579 255.588 411.254 258.939C411.416 260.634 411.554 262.329 411.668 264.024L411.719 264.655L412.025 265.217C412.025 265.217 414.079 268.874 418.543 275.384C418.532 275.489 418.533 275.606 418.534 275.699L418.513 276.12L418.62 276.529C418.656 276.682 420.498 284.357 426.282 296.973C427.182 303.288 429.009 312.552 432.728 323.754C439.787 344.919 453.671 372.887 480.884 400.099C515.099 434.314 570.315 467.267 659.153 484.294L660.162 478.727L660.185 478.727ZM431.8 295.403C431.666 294.456 431.568 293.591 431.481 292.807C441.296 305.294 455.232 321.508 474.137 340.413C509.703 375.979 562.86 421.002 639.248 468.48C567.141 438.623 518.723 403.195 486.411 370.884C460.398 344.87 444.817 320.877 435.747 303.417C434.259 300.558 432.959 297.886 431.8 295.379L431.8 295.403ZM416.179 251.593C417.071 252.136 418.008 252.702 418.97 253.291C419.014 254.986 419.035 256.68 419.045 258.386C418.211 257.622 417.424 256.905 416.696 256.246C416.536 254.692 416.375 253.137 416.179 251.593ZM158.438 79.9776L158.379 79.9189C156.946 78.4854 130.942 52.2029 106.388 9.1497C95.3436 -10.2143 84.6193 -32.9766 76.5094 -58.3768C80.3762 -58.5072 83.9972 -58.7208 87.384 -59.0058C97.7902 -34.6094 110.463 -12.362 122.99 6.76488C149.976 47.9037 176.343 74.5503 178.423 76.63L178.541 76.7476C178.611 76.8181 205.094 103.045 243.394 132.352C262.016 146.582 283.423 161.528 305.965 174.565C301.809 173.058 297.675 171.481 293.6 169.799C255.632 154.188 221.786 131.706 197.473 113.133C185.305 103.846 175.537 95.5427 168.809 89.558C165.45 86.5715 162.831 84.1617 161.081 82.5045C160.2 81.67 159.542 81.0353 159.084 80.6005C158.861 80.3772 158.696 80.2127 158.591 80.1069C158.485 80.0012 158.426 79.9424 158.426 79.9424L158.438 79.9776ZM49.6965 -181.913C49.8303 -180.966 49.9286 -180.1 50.0147 -179.317C40.2005 -191.804 26.2644 -208.017 7.37091 -226.911C-28.1954 -262.477 -81.3525 -307.501 -157.74 -354.978C-85.6335 -325.121 -37.2151 -289.694 -4.90348 -257.382C21.1103 -231.368 36.6904 -207.375 45.7611 -189.915C47.2492 -187.056 48.5493 -184.385 49.7083 -181.878L49.6965 -181.913ZM65.3166 -138.103C64.4256 -138.646 63.4877 -139.212 62.5263 -139.801C62.4819 -141.496 62.4607 -143.19 62.4513 -144.896C63.2851 -144.132 64.0719 -143.415 64.8 -142.756C64.9605 -141.201 65.1211 -139.647 65.3166 -138.103ZM325.033 31.5138L323.093 33.5478L323.117 33.5712C324.55 35.0046 350.554 61.2872 375.108 104.34C386.153 123.704 396.877 146.467 404.987 171.867C401.12 171.997 397.499 172.211 394.112 172.496C383.706 148.099 371.033 125.852 358.506 106.725C331.521 65.5864 305.153 38.9397 303.073 36.86L302.944 36.7307C302.885 36.6719 276.414 10.4336 238.102 -18.8618C219.48 -33.0917 198.073 -48.0381 175.531 -61.0747C179.687 -59.5676 183.821 -57.9906 187.896 -56.3088C225.864 -40.6977 259.71 -18.2158 284.023 0.357312C296.192 9.64392 305.959 17.9474 312.688 23.9321C316.046 26.9186 318.665 29.3284 320.415 30.9856C321.296 31.8201 321.954 32.4547 322.412 32.8896C322.635 33.1128 322.8 33.2774 322.905 33.3831C323.011 33.4889 323.07 33.5476 323.07 33.5476L325.057 31.5607L325.033 31.5138ZM431.724 283.94C431.994 282.025 432.276 280.122 432.51 278.219C467.541 309.903 536.93 372.134 640.278 462.492C565.285 415.688 513.055 371.382 478.099 336.427C456.48 314.808 441.47 296.777 431.724 283.917L431.724 283.94ZM424.682 263.535C424.716 261.315 424.727 259.095 424.703 256.887C425.982 257.7 427.318 258.549 428.69 259.456C428.517 261.839 428.331 264.233 428.1 266.651C427.148 265.792 426.244 264.958 425.363 264.17C425.14 263.947 424.905 263.758 424.682 263.559L424.682 263.535ZM182.515 72.7737L182.409 72.6678C180.517 70.7761 154.373 44.3761 127.717 3.70651C115.591 -14.7638 103.402 -36.1789 93.2817 -59.5455C96.9951 -59.9455 100.323 -60.3827 103.195 -60.8341C115.845 -38.3298 130.253 -17.2061 144.108 1.22703C173.054 39.7244 199.527 66.4535 202.382 69.3087C202.547 69.4732 202.629 69.5554 202.629 69.5554C202.664 69.5906 229.064 95.7352 265.123 127.378C283.604 143.582 304.606 161.214 325.903 177.538C324.723 177.45 323.542 177.362 322.361 177.25C295.174 162.844 268.971 144.868 246.781 127.884C227.783 113.348 211.687 99.5527 200.356 89.4061C194.695 84.327 190.209 80.1659 187.155 77.2746C185.628 75.8173 184.465 74.7007 183.666 73.9251C182.879 73.1613 182.48 72.7618 182.48 72.7618L182.515 72.7737ZM49.7485 -170.45C49.4787 -168.535 49.1972 -166.632 48.9624 -164.729C13.9318 -196.413 -55.4571 -258.644 -158.805 -349.002C-83.8002 -302.209 -31.5934 -257.904 3.36187 -222.949C24.9813 -201.329 39.9907 -183.299 49.7369 -170.439L49.7485 -170.45ZM8.77266 -193.346C25.06 -178.755 38.1772 -166.916 48.1709 -157.875C47.871 -155.061 47.6061 -152.281 47.3995 -149.513C18.1856 -168.966 -27.8452 -203.68 -84.1262 -259.961C-107.59 -283.425 -132.84 -310.649 -159.386 -342.076C-85.8492 -277.765 -29.7441 -227.888 8.77252 -193.369L8.77266 -193.346ZM56.7907 -150.045C56.7563 -147.825 56.7571 -145.594 56.7693 -143.397C55.4912 -144.21 54.1544 -145.059 52.7823 -145.966C52.956 -148.349 53.1414 -150.743 53.3733 -153.161C54.3245 -152.302 55.2288 -151.468 56.1095 -150.68C56.3328 -150.457 56.5676 -150.268 56.7907 -150.069L56.7907 -150.045ZM300.945 38.7293L298.982 40.7398L298.993 40.7515L299.064 40.8221C300.956 42.7138 327.1 69.1139 353.756 109.783C365.882 128.254 378.071 149.669 388.191 173.035C384.478 173.435 381.15 173.873 378.278 174.324C365.628 151.82 351.22 130.696 337.365 112.263C308.419 73.7656 281.946 47.0364 279.091 44.1813C278.938 44.0285 278.856 43.9463 278.844 43.9346C278.844 43.9346 252.409 17.7549 216.35 -13.8882C197.869 -30.092 176.867 -47.7237 155.569 -64.0483C156.75 -63.9599 157.919 -63.86 159.111 -63.7599C186.299 -49.3538 212.502 -31.3778 234.692 -14.3939C253.689 0.141943 269.785 13.9372 281.117 24.0838C286.777 29.1629 291.264 33.3241 294.318 36.2155C295.845 37.6728 297.008 38.7892 297.807 39.5648C298.594 40.3287 298.993 40.7282 298.993 40.7282L300.98 38.7412L300.945 38.7293ZM434.998 229.673C436.017 230.041 437.024 230.397 438.066 230.788C468.134 242.055 508.226 263.602 549.467 304.844C580.909 336.286 613.023 379.206 641.823 437.799C611.973 392.076 581.848 355.932 553.39 327.475C506.556 280.64 464.266 254.571 435.093 240.458C435.12 236.836 435.088 233.249 434.998 229.696L434.998 229.673ZM549.405 331.437C578.896 360.929 610.246 398.808 641.245 447.284C616.041 417.687 592.015 391.872 569.596 369.453C511.318 311.175 463.881 275.846 434.54 256.544C434.743 253.215 434.889 249.921 434.987 246.65C463.529 260.76 504.298 286.33 549.416 331.449L549.405 331.437ZM553.441 300.846C510.919 258.324 469.434 236.314 438.535 224.937C437.248 224.462 436.018 224.046 434.777 223.596C434.604 219.797 434.362 216.069 434.072 212.363C434.997 212.59 435.909 212.829 436.834 213.056C469.41 221.603 511.964 240.43 553.206 281.671C585.658 314.124 617.312 360.488 642.603 426.75C614.665 371.97 583.79 331.172 553.441 300.823L553.441 300.846ZM429.018 221.671C426.513 220.862 424.102 220.124 421.785 219.457C421.298 216.066 420.731 212.71 420.128 209.388C422.748 209.87 425.462 210.399 428.269 211.022C428.569 214.529 428.823 218.083 428.995 221.671L429.018 221.671ZM415.817 217.835C413.523 217.238 411.324 216.712 409.253 216.244C408.465 213.272 407.643 210.335 406.762 207.409C409.123 207.679 411.602 207.997 414.222 208.408C414.8 211.52 415.332 214.678 415.817 217.835ZM404.941 201.522C403.978 198.513 402.968 195.528 401.924 192.555C404.728 192.594 407.72 192.68 410.864 192.85C411.641 196.044 412.383 199.249 413.056 202.501C410.202 202.088 407.49 201.769 404.941 201.498L404.941 201.522ZM398.839 200.997C396.268 200.819 393.942 200.701 391.85 200.631C390.62 198.03 389.379 195.441 388.091 192.852C390.439 192.713 393.079 192.611 395.918 192.568C396.915 195.354 397.9 198.152 398.827 200.985L398.839 200.997ZM380.68 200.756C379.172 198.504 377.641 196.252 376.098 194.012C377.475 193.809 379.472 193.551 382.006 193.32C383.223 195.722 384.416 198.147 385.587 200.573C383.25 200.606 381.591 200.691 380.68 200.756ZM206.591 65.5696C206.591 65.5696 206.509 65.4874 206.356 65.3347C203.63 62.6088 177.309 36.0324 148.611 -2.14811C135.227 -19.9477 121.361 -40.2738 109.101 -61.8528C112.673 -62.534 114.89 -63.0826 115.567 -63.2424C116.232 -63.3205 116.886 -63.3636 117.54 -63.4301C132.433 -43.1917 148.562 -23.4607 163.733 -5.82642C194.322 29.7122 221.007 56.6528 225.918 61.5642C226.447 62.0929 226.717 62.3632 226.717 62.3632C226.717 62.3632 227.728 63.3737 229.619 65.242C235.294 70.8703 248.841 84.3242 266.383 101.867C287.932 123.415 315.509 151.132 341.961 178.095C339.916 178.095 337.871 178.072 335.849 178.026C312.488 160.498 289.116 140.96 268.827 123.157C250.862 107.4 235.3 93.0005 224.235 82.5399C218.703 77.3096 214.298 73.0672 211.267 70.1292C209.751 68.6603 208.588 67.5204 207.801 66.7565C207.026 65.981 206.614 65.5698 206.614 65.5698L206.591 65.5696ZM100.781 -87.2542C102.289 -85.0024 103.821 -82.7505 105.364 -80.5102C103.986 -80.3076 101.989 -80.0499 99.4552 -79.8186C98.2384 -82.2207 97.0448 -84.6459 95.8745 -87.0711C98.2112 -87.1049 99.8699 -87.1892 100.781 -87.2542ZM108.361 -75.2356C108.606 -75.2225 108.828 -75.2096 109.074 -75.1965C110.617 -73.003 112.171 -70.8211 113.749 -68.639C112.71 -68.3761 110.085 -67.7713 106.151 -67.0804C104.817 -69.5065 103.507 -71.9559 102.219 -74.4051C105.466 -74.7609 107.579 -75.1114 108.372 -75.2472L108.361 -75.2356ZM116.309 -74.7007C118.32 -74.5259 120.342 -74.316 122.342 -74.0829C123.717 -72.6848 125.08 -71.2751 126.466 -69.8653C124.364 -69.7368 122.262 -69.5849 120.148 -69.398C118.864 -71.1694 117.569 -72.9293 116.309 -74.7007ZM270.345 97.8808C246.94 74.4754 230.656 58.354 230.656 58.354C230.656 58.354 230.386 58.0837 229.869 57.5667C225.028 52.7258 198.413 25.8792 167.978 -9.50672C153.571 -26.237 138.313 -44.9117 124.103 -64.0246C126.661 -64.209 129.208 -64.3584 131.766 -64.4493C159.358 -36.2768 188.533 -6.96214 211.104 15.609C234.509 39.0144 250.794 55.1358 250.794 55.1358C250.794 55.1358 251.052 55.3943 251.569 55.9113C256.41 60.7522 283.024 87.5989 313.46 122.985C327.866 139.715 343.125 158.39 357.334 177.503C354.776 177.687 352.23 177.836 349.672 177.927C322.08 149.755 292.905 120.44 270.334 97.869L270.345 97.8808ZM276.845 45.9332L274.882 47.9437C274.882 47.9437 274.952 48.0141 275.105 48.1669C277.831 50.8928 304.152 77.4692 332.839 115.638C346.223 133.437 360.088 153.764 372.348 175.343C368.777 176.024 366.56 176.572 365.883 176.732C365.217 176.81 364.563 176.853 363.909 176.92C349.016 156.682 332.887 136.95 317.716 119.316C287.128 83.7776 260.443 56.837 255.531 51.9256C255.014 51.4086 254.744 51.1385 254.732 51.1267C254.732 51.1267 253.722 50.1161 251.83 48.2478C246.155 42.6194 232.609 29.1656 215.066 11.6233C193.517 -9.92564 165.94 -37.6423 139.489 -64.605C141.533 -64.6053 143.578 -64.5823 145.6 -64.536C168.961 -47.0081 192.333 -27.4704 212.623 -9.66752C230.587 6.0894 246.149 20.4893 257.214 30.9499C262.746 36.1802 267.152 40.4226 270.183 43.3606C271.698 44.8295 272.861 45.9694 273.648 46.7333C274.435 47.4971 274.835 47.92 274.835 47.92L276.822 45.933L276.845 45.9332ZM361.278 182.888C362.562 184.659 363.857 186.419 365.117 188.19C363.106 188.016 361.084 187.806 359.084 187.573C357.71 186.175 356.346 184.765 354.96 183.355C357.062 183.226 359.164 183.075 361.278 182.888ZM367.689 182.14C368.727 181.877 371.353 181.273 375.287 180.582C376.621 183.008 377.931 185.457 379.218 187.906C375.972 188.262 373.859 188.613 373.065 188.749C372.832 188.747 372.598 188.723 372.352 188.71C370.81 186.516 369.255 184.334 367.677 182.152L367.689 182.14ZM385.303 187.368C383.956 184.766 382.575 182.2 381.182 179.645C383.926 179.251 387.043 178.86 390.465 178.516C391.614 181.315 392.728 184.126 393.819 186.959C390.664 187.035 387.802 187.195 385.303 187.368ZM137.857 -70.2343C136.583 -70.2297 135.298 -70.1901 134.013 -70.1739C133.155 -71.0316 132.321 -71.9126 131.463 -72.7703C132.714 -72.5647 133.977 -72.3473 135.241 -72.1066C136.109 -71.4708 136.977 -70.8585 137.845 -70.2227L137.857 -70.2343ZM112.07 -80.6832C111.068 -82.126 110.091 -83.5453 109.101 -84.9762C110.365 -84.5953 111.618 -84.1794 112.882 -83.7751C113.986 -82.6473 115.08 -81.5078 116.196 -80.3682C114.828 -80.4809 113.449 -80.5821 112.07 -80.6832ZM97.1399 -92.7544C96.0301 -92.7255 94.6981 -92.7096 93.1791 -92.718C92.1146 -95.0374 91.1202 -97.3564 90.1141 -99.6872C91.2832 -99.5639 92.2068 -99.477 92.8964 -99.4381C94.2875 -97.2103 95.702 -94.9824 97.1515 -92.766L97.1399 -92.7544ZM86.9153 -92.893C85.0102 -92.9854 82.9531 -93.1137 80.732 -93.2896C79.8991 -96.005 79.1012 -98.7085 78.3498 -101.459C80.2447 -101.097 81.999 -100.784 83.5777 -100.553C84.6552 -97.9883 85.7678 -95.4349 86.9153 -92.893ZM76.7386 -107.532C76.1172 -110.012 75.5426 -112.493 74.9796 -114.984C76.2205 -114.557 77.356 -114.188 78.4212 -113.844C79.2875 -111.443 80.177 -109.067 81.1133 -106.689C79.7332 -106.931 78.2944 -107.208 76.7386 -107.532ZM70.6084 -108.898C68.7481 -109.34 66.7941 -109.83 64.7462 -110.391C64.3678 -113.302 64.0127 -116.237 63.7275 -119.195C65.4958 -118.472 67.1468 -117.844 68.7159 -117.251C69.3039 -114.455 69.927 -111.671 70.5966 -108.91L70.6084 -108.898ZM58.8247 -112.06C56.6945 -112.702 54.4472 -113.416 52.1528 -114.177C52.0525 -117.507 51.9755 -120.861 51.9799 -124.273C54.0065 -123.338 55.9625 -122.475 57.8249 -121.658C58.1115 -118.443 58.4448 -115.228 58.8247 -112.06ZM46.4281 -116.16C45.4095 -116.528 44.4027 -116.884 43.3606 -117.275C13.2925 -128.542 -26.7995 -150.089 -68.0408 -191.331C-99.483 -222.773 -131.597 -265.693 -160.397 -324.263C-130.546 -278.54 -100.433 -242.408 -71.964 -213.938C-25.1297 -167.104 17.1607 -141.035 46.3332 -126.922C46.3066 -123.3 46.3383 -119.712 46.4281 -116.16ZM52.039 -130.442C52.1042 -133.421 52.2044 -136.435 52.3511 -139.472C53.9224 -138.459 55.4232 -137.515 56.877 -136.619C56.9749 -133.733 57.131 -130.881 57.322 -128.041C55.6119 -128.798 53.8548 -129.602 52.0273 -130.454L52.039 -130.442ZM46.8863 -143.031C46.6828 -139.702 46.5376 -136.408 46.4389 -133.137C17.8974 -147.247 -22.8714 -172.817 -67.9902 -217.936C-97.4819 -247.427 -128.831 -285.307 -159.831 -333.783C-134.627 -304.186 -110.6 -278.37 -88.1817 -255.952C-29.9033 -197.673 17.533 -162.345 46.8746 -143.043L46.8863 -143.031ZM-72.0147 -187.333C-29.4926 -144.811 11.9924 -122.801 42.8907 -111.424C44.1786 -110.949 45.4078 -110.533 46.6488 -110.083C46.8218 -106.284 47.0646 -102.556 47.3539 -98.85C46.4296 -99.0771 45.5169 -99.3158 44.5926 -99.543C12.0158 -108.09 -30.5382 -126.916 -71.7796 -168.158C-104.232 -200.61 -135.886 -246.975 -161.177 -313.237C-133.227 -258.469 -102.364 -217.659 -72.0146 -187.31L-72.0147 -187.333ZM52.4083 -108.158C54.9132 -107.349 57.3243 -106.611 59.6415 -105.944C60.1278 -102.553 60.6956 -99.1964 61.2983 -95.8747C58.6783 -96.3567 55.9646 -96.8858 53.1569 -97.509C52.857 -101.016 52.6035 -104.569 52.4316 -108.158L52.4083 -108.158ZM65.6096 -104.322C67.903 -103.725 70.1026 -103.199 72.1734 -102.731C72.9611 -99.7592 73.7835 -96.8219 74.6645 -93.8959C72.3027 -94.1661 69.8239 -94.4836 67.2043 -94.8955C66.6262 -98.0067 66.0945 -101.164 65.6096 -104.322ZM76.4849 -88.0085C77.4481 -85.0003 78.4578 -82.0152 79.5026 -79.0415C76.6981 -79.0805 73.7064 -79.1672 70.5624 -79.3366C69.7851 -82.5307 69.0429 -85.7364 68.3705 -88.9884C71.2238 -88.5752 73.9364 -88.2564 76.4851 -87.9851L76.4849 -88.0085ZM82.5871 -87.4838C85.1586 -87.306 87.4845 -87.1879 89.5764 -87.1178C90.806 -84.5171 92.0472 -81.9279 93.3352 -79.3385C90.9757 -79.2114 88.3474 -79.0975 85.5083 -79.0548C84.5113 -81.8412 83.526 -84.6393 82.5989 -87.4721L82.5871 -87.4838ZM96.1116 -73.8431C97.4581 -71.2417 98.8394 -68.6752 100.232 -66.1202C97.4887 -65.7265 94.3712 -65.3349 90.9496 -64.9917C89.789 -67.779 88.6867 -70.6011 87.596 -73.4348C90.7503 -73.5107 93.6121 -73.6701 96.1116 -73.8431ZM343.558 183.759C344.832 183.754 346.117 183.715 347.402 183.699C348.26 184.556 349.094 185.437 349.952 186.295C348.689 186.078 347.437 185.872 346.174 185.631C345.306 184.995 344.438 184.383 343.57 183.747L343.558 183.759ZM369.345 194.208C370.346 195.651 371.324 197.07 372.313 198.501C371.049 198.12 369.797 197.704 368.533 197.3C367.428 196.172 366.335 195.032 365.219 193.893C366.586 194.006 367.966 194.107 369.345 194.208ZM384.275 206.279C385.385 206.25 386.716 206.234 388.235 206.243C389.3 208.562 390.294 210.881 391.301 213.212C390.131 213.089 389.208 213.002 388.518 212.963C387.127 210.735 385.713 208.507 384.263 206.291L384.275 206.279ZM394.499 206.418C396.404 206.51 398.462 206.638 400.683 206.814C401.516 209.53 402.313 212.233 403.065 214.983C401.17 214.622 399.416 214.309 397.837 214.078C396.759 211.513 395.647 208.96 394.499 206.418ZM404.676 221.056C405.297 223.537 405.872 226.017 406.435 228.509C405.194 228.082 404.059 227.713 402.993 227.368C402.127 224.968 401.238 222.591 400.301 220.214C401.681 220.455 403.12 220.732 404.676 221.056ZM410.806 222.422C412.666 222.865 414.62 223.355 416.668 223.916C417.047 226.827 417.402 229.762 417.687 232.72C415.919 231.997 414.268 231.369 412.699 230.776C412.111 227.98 411.488 225.195 410.806 222.422ZM422.59 225.584C424.72 226.227 426.967 226.941 429.262 227.701C429.362 231.032 429.439 234.386 429.435 237.797C427.408 236.863 425.452 235.999 423.59 235.183C423.303 231.968 422.97 228.753 422.59 225.584ZM429.364 243.978C429.299 246.957 429.199 249.971 429.052 253.008C427.481 251.995 425.98 251.052 424.526 250.156C424.428 247.269 424.272 244.417 424.081 241.577C425.791 242.334 427.548 243.138 429.376 243.99L429.364 243.978ZM434.062 263.015C463.276 282.468 509.306 317.181 565.587 373.462C589.051 396.926 614.301 424.151 640.847 455.578C567.31 391.267 511.205 341.39 472.677 306.859C456.39 292.268 443.272 280.429 433.279 271.388C433.579 268.574 433.844 265.794 434.05 263.026L434.062 263.015ZM557.168 277.732C514.47 235.034 470.196 215.765 436.614 207.213C435.561 206.95 434.531 206.687 433.502 206.448C433.107 202.613 432.665 198.825 432.142 195.094C433.393 195.277 434.644 195.482 435.931 195.7C471.31 201.75 516.655 218.232 558.343 259.92C591.43 293.007 622.269 342.066 643.879 414.617C619.024 353.089 588.54 309.104 557.18 277.744L557.168 277.732ZM427.699 205.13C424.693 204.494 421.78 203.929 418.985 203.457C418.3 200.03 417.545 196.626 416.755 193.28C419.818 193.53 423.021 193.852 426.33 194.279C426.841 197.858 427.317 201.471 427.699 205.13ZM415.333 187.488C414.461 184.083 413.53 180.713 412.554 177.389C416.047 177.373 419.705 177.452 423.468 177.613C424.177 181.181 424.84 184.795 425.433 188.456C421.926 188.039 418.559 187.716 415.321 187.476L415.333 187.488ZM409.418 187.128C406.04 186.957 402.839 186.893 399.859 186.888C398.732 183.902 397.583 180.939 396.386 178C399.61 177.761 403.056 177.581 406.701 177.485C407.653 180.668 408.559 183.875 409.418 187.128ZM104.926 -92.0334C104.703 -92.0931 104.469 -92.1645 104.247 -92.2241C103.952 -92.6815 103.658 -93.1388 103.34 -93.5963C103.387 -93.5493 103.445 -93.5373 103.504 -93.5019C103.985 -93.0202 104.456 -92.5268 104.926 -92.0334ZM89.1938 -105.488C88.7028 -105.537 88.1883 -105.61 87.6504 -105.683C86.8093 -107.756 85.9682 -109.829 85.1739 -111.901C85.2675 -111.878 85.3493 -111.865 85.4429 -111.842C86.658 -109.743 87.92 -107.621 89.2054 -105.499L89.1938 -105.488ZM76.1169 -120.587C75.3442 -120.848 74.5364 -121.145 73.6818 -121.441C73.297 -123.406 72.9355 -125.372 72.5973 -127.36C73.1833 -127.029 73.7224 -126.746 74.2381 -126.463C74.8449 -124.508 75.4634 -122.542 76.1169 -120.587ZM67.4994 -123.789C66.1294 -124.323 64.7006 -124.915 63.2249 -125.531C63.0358 -128.02 62.8815 -130.545 62.774 -133.07C64.0168 -132.315 65.2008 -131.619 66.3262 -130.958C66.6901 -128.549 67.0889 -126.175 67.5228 -123.789L67.4994 -123.789ZM57.0066 -157.452C56.0672 -158.298 55.1042 -159.168 54.0943 -160.085C54.2391 -161.358 54.4073 -162.631 54.5754 -163.927C55.5055 -162.648 56.3536 -161.428 57.1426 -160.314C57.0895 -159.368 57.048 -158.41 57.0066 -157.452ZM-75.7071 -164.23C-33.0087 -121.532 11.2653 -102.264 44.847 -93.7111C45.9 -93.4482 46.9297 -93.1854 47.9593 -92.946C48.3545 -89.1113 48.7962 -85.3231 49.3193 -81.5929C48.0681 -81.7751 46.8167 -81.9807 45.5302 -82.1982C10.1514 -88.2487 -35.1938 -104.73 -76.8817 -146.418C-109.969 -179.505 -140.808 -228.564 -162.418 -301.116C-137.562 -239.588 -107.079 -195.602 -75.7189 -164.242L-75.7071 -164.23ZM53.762 -91.6285C56.7685 -90.9925 59.6811 -90.4271 62.4762 -89.9559C63.1613 -86.5285 63.9163 -83.1242 64.7061 -79.7781C61.6434 -80.0288 58.4401 -80.3504 55.131 -80.7777C54.6204 -84.356 54.1446 -87.9691 53.762 -91.6285ZM66.1287 -73.9864C67.0006 -70.5814 67.9307 -67.2112 68.9073 -63.8874C65.4137 -63.8717 61.7561 -63.9505 57.9928 -64.1116C57.2836 -67.6793 56.6209 -71.2935 56.028 -74.954C59.5356 -74.5372 62.9026 -74.2146 66.1405 -73.9746L66.1287 -73.9864ZM72.043 -73.6264C75.4323 -73.4673 78.6227 -73.3911 81.6022 -73.3863C82.7288 -70.4005 83.8787 -67.4379 85.0634 -64.5103C81.8398 -64.2711 78.3939 -64.0917 74.7489 -63.9951C73.7964 -67.1786 72.8906 -70.3851 72.0312 -73.6381L72.043 -73.6264ZM376.535 205.535C376.758 205.595 376.992 205.666 377.214 205.726C377.509 206.183 377.803 206.64 378.122 207.098C378.075 207.051 378.016 207.039 377.957 207.003C377.476 206.522 377.006 206.028 376.535 205.535ZM392.267 218.989C392.758 219.039 393.273 219.112 393.811 219.185C394.652 221.258 395.493 223.33 396.287 225.403C396.194 225.379 396.112 225.367 396.018 225.343C394.803 223.245 393.541 221.123 392.256 219.001L392.267 218.989ZM405.344 234.088C406.117 234.35 406.925 234.646 407.779 234.943C408.164 236.908 408.526 238.873 408.864 240.861C408.278 240.531 407.739 240.248 407.223 239.964C406.616 238.01 405.998 236.043 405.344 234.088ZM413.962 237.291C415.332 237.824 416.761 238.416 418.236 239.032C418.425 241.522 418.58 244.047 418.687 246.571C417.444 245.816 416.26 245.12 415.135 244.46C414.771 242.051 414.372 239.677 413.938 237.291L413.962 237.291ZM424.454 270.953C425.394 271.8 426.357 272.67 427.367 273.587C427.222 274.86 427.054 276.132 426.886 277.428C425.956 276.15 425.108 274.93 424.319 273.815C424.372 272.869 424.413 271.911 424.454 270.953ZM435.192 178.438C473.502 182.098 521.815 196.411 564.196 238.769C597.694 272.267 627.564 323.447 645.615 401.131C624.037 334.282 594.323 287.905 562.34 255.923C519.007 212.59 471.615 195.758 435.115 189.818C433.829 189.6 432.554 189.418 431.291 189.224C430.686 185.412 430.034 181.646 429.301 177.938C431.241 178.065 433.205 178.216 435.204 178.426L435.192 178.438ZM307.229 -5.81157C319.815 2.96324 329.815 11.0108 336.648 16.8676C340.064 19.796 342.683 22.1592 344.457 23.7932C345.337 24.6043 346.007 25.2507 346.453 25.6738C346.677 25.897 346.841 26.0616 346.947 26.1673C347.053 26.2731 347.1 26.3201 347.1 26.3201L349.087 24.3331L347.158 26.3787L348.401 25.0419L347.135 26.3552C348.274 27.4949 374.172 53.6717 396.59 99.0966C406.706 119.624 416.119 144.073 422.245 171.928C418.283 171.777 414.462 171.721 410.817 171.771C402.514 145.294 391.387 121.642 379.977 101.61C355.057 57.912 328.736 31.3123 327.067 29.6204L326.985 29.5383C326.903 29.456 300.35 3.13536 259.796 -23.8239C242.908 -35.0413 223.577 -46.354 202.714 -55.946C203.451 -55.7433 204.2 -55.5522 204.949 -55.3377C246.458 -43.7848 282.045 -23.3496 307.229 -5.78819L307.229 -5.81157ZM71.283 -136.785C71.5099 -135.907 71.7718 -135.018 72.0105 -134.128C71.8346 -134.234 71.6355 -134.341 71.4479 -134.458C71.3265 -135.277 71.2401 -136.107 71.1303 -136.937C71.1773 -136.89 71.236 -136.832 71.2713 -136.796L71.283 -136.785ZM43.3209 -208.507C44.0101 -206.423 44.6288 -204.433 45.2004 -202.491C35.5037 -219.066 20.8663 -239.537 -0.964585 -261.368C-33.8637 -294.267 -83.056 -330.189 -155.97 -360.343C-81.3136 -342.553 -33.7689 -312.95 -3.43126 -282.612C23.076 -256.105 36.5002 -228.992 43.3325 -208.518L43.3209 -208.507ZM46.2223 -64.9131C7.91222 -68.573 -40.4004 -82.8861 -82.7814 -125.244C-116.28 -158.742 -146.137 -209.91 -164.189 -287.595C-142.599 -220.757 -112.896 -174.369 -80.9255 -142.398C-37.5927 -99.0651 9.79926 -82.2332 46.2992 -76.2933C47.5857 -76.0758 48.8603 -75.8934 50.1233 -75.6995C50.7287 -71.887 51.3806 -68.1211 52.1139 -64.413C50.1736 -64.5407 48.2214 -64.7034 46.2106 -64.9015L46.2223 -64.9131ZM174.185 119.336C161.599 110.562 151.6 102.514 144.767 96.657C141.35 93.7286 138.731 91.3655 136.958 89.7315C136.077 88.9204 135.408 88.274 134.961 87.8508C134.738 87.6276 134.574 87.4632 134.468 87.3575C134.362 87.2517 134.315 87.2047 134.315 87.2047L134.268 87.1577C133.128 86.0179 107.23 59.8412 84.8127 14.4163C74.6968 -6.11098 65.2834 -30.5603 59.1579 -58.4149C63.1197 -58.2643 66.9409 -58.208 70.5861 -58.2578C78.889 -31.7816 90.0154 -8.12902 101.426 11.903C126.346 55.6009 152.667 82.2006 154.335 83.8925L154.406 83.9629C154.512 84.0686 181.053 110.378 221.607 137.337C238.495 148.554 257.825 159.867 278.689 169.459C277.951 169.256 277.203 169.065 276.454 168.851C234.945 157.298 199.358 136.863 174.174 119.301L174.185 119.336ZM410.132 250.309C409.905 249.432 409.643 248.542 409.404 247.653C409.58 247.759 409.779 247.865 409.967 247.983C410.088 248.802 410.175 249.632 410.284 250.462C410.237 250.415 410.179 250.356 410.143 250.321L410.132 250.309ZM438.094 322.032C437.404 319.948 436.786 317.958 436.226 316.004C445.922 332.579 460.56 353.05 482.391 374.881C515.29 407.78 564.482 443.702 637.397 473.856C562.74 456.066 515.195 426.463 484.858 396.125C458.35 369.618 444.926 342.505 438.094 322.032Z" fill="url(#paint0_linear_4776_33772)"/>
</g>
<defs>
<linearGradient id="paint0_linear_4776_33772" x1="-182.246" y1="-366.238" x2="663.731" y2="479.739" gradientUnits="userSpaceOnUse">
<stop offset="0.14" stop-color="#FFF200"/>
<stop offset="0.26" stop-color="#F58220"/>
<stop offset="0.3" stop-color="#F58220"/>
<stop offset="0.37" stop-color="#08B798"/>
<stop offset="0.65" stop-color="#00B49D"/>
<stop offset="0.7" stop-color="#F58220"/>
<stop offset="0.75" stop-color="#F58220"/>
<stop offset="1" stop-color="#C6168D"/>
</linearGradient>
</defs>
</svg>
